<svg width="20" height="20" viewBox="0 0 20 20" fill="none" xmlns="http://www.w3.org/2000/svg">
<path d="M10.0002 0C4.48024 0 0.000244141 4.48 0.000244141 10C0.000244141 15.52 4.48024 20 10.0002 20H15.0002V18H10.0002C5.66024 18 2.00024 14.34 2.00024 10C2.00024 5.66 5.66024 2 10.0002 2C14.3402 2 18.0002 5.66 18.0002 10V11.43C18.0002 12.22 17.2902 13 16.5002 13C15.7102 13 15.0002 12.22 15.0002 11.43V10C15.0002 7.24 12.7602 5 10.0002 5C7.24024 5 5.00024 7.24 5.00024 10C5.00024 12.76 7.24024 15 10.0002 15C11.3802 15 12.6402 14.44 13.5402 13.53C14.1902 14.42 15.3102 15 16.5002 15C18.4702 15 20.0002 13.4 20.0002 11.43V10C20.0002 4.48 15.5202 0 10.0002 0ZM10.0002 13C8.34024 13 7.00024 11.66 7.00024 10C7.00024 8.34 8.34024 7 10.0002 7C11.6602 7 13.0002 8.34 13.0002 10C13.0002 11.66 11.6602 13 10.0002 13Z" fill="#1D1D1D" fill-opacity="0.9"/>
</svg>
