<svg width="139" height="113" viewBox="0 0 139 113" fill="none" xmlns="http://www.w3.org/2000/svg">
<path fill-rule="evenodd" clip-rule="evenodd" d="M61.9204 4.22859e-05C77.8214 -0.0212624 91.3268 8.01032 103.13 18.3498C119.186 32.4133 141.164 46.3961 138.691 67.2476C136.089 89.1897 113.774 104.293 92.129 111.118C73.5032 116.991 54.9596 108.037 37.6757 99.1C21.6142 90.7947 4.25991 81.1249 0.648643 63.8145C-2.8945 46.8307 8.68008 31.1379 20.8527 18.4601C31.6731 7.19066 46.0481 0.0213085 61.9204 4.22859e-05Z" fill="#264653"/>
<path d="M96.6114 68.3611C92.3752 68.3611 88.3086 67.6833 84.513 66.4294C83.3269 66.0567 82.0052 66.3278 81.0564 67.2428L73.6008 74.6983C64.0102 69.8183 56.148 61.99 51.268 52.3656L58.7236 44.8761C59.6725 43.995 59.9436 42.6733 59.5708 41.4872C58.3169 37.6917 57.6391 33.625 57.6391 29.3889C57.6391 27.525 56.1141 26 54.2502 26H42.3891C40.5252 26 39.0002 27.525 39.0002 29.3889C39.0002 61.2106 64.7897 87 96.6114 87C98.4752 87 100 85.475 100 83.6111V71.75C100 69.8861 98.4752 68.3611 96.6114 68.3611ZM93.2225 56.5H100C100 39.6572 86.343 26 69.5002 26V32.7778C82.6152 32.7778 93.2225 43.385 93.2225 56.5ZM79.6669 56.5H86.4447C86.4447 47.1467 78.8536 39.5556 69.5002 39.5556V46.3333C75.1258 46.3333 79.6669 50.8744 79.6669 56.5Z" fill="white"/>
</svg>
