<svg width="13" height="22" viewBox="0 0 13 22" fill="none" xmlns="http://www.w3.org/2000/svg">
<path d="M10.5002 0H2.50024C1.12024 0 0.000244141 1.12 0.000244141 2.5V19.5C0.000244141 20.88 1.12024 22 2.50024 22H10.5002C11.8802 22 13.0002 20.88 13.0002 19.5V2.5C13.0002 1.12 11.8802 0 10.5002 0ZM6.50024 21C5.67024 21 5.00024 20.33 5.00024 19.5C5.00024 18.67 5.67024 18 6.50024 18C7.33024 18 8.00024 18.67 8.00024 19.5C8.00024 20.33 7.33024 21 6.50024 21ZM11.0002 17H2.00024V3H11.0002V17Z" fill="#1D1D1D"/>
</svg>
