<svg width="20" height="20" viewBox="0 0 20 20" fill="none" xmlns="http://www.w3.org/2000/svg">
<path d="M10.0002 0C4.48024 0 0.000244141 4.48 0.000244141 10C0.000244141 15.52 4.48024 20 10.0002 20C15.5202 20 20.0002 15.52 20.0002 10C20.0002 4.48 15.5202 0 10.0002 0ZM10.0002 3C11.6602 3 13.0002 4.34 13.0002 6C13.0002 7.66 11.6602 9 10.0002 9C8.34024 9 7.00024 7.66 7.00024 6C7.00024 4.34 8.34024 3 10.0002 3ZM10.0002 17.2C7.50024 17.2 5.29024 15.92 4.00024 13.98C4.03024 11.99 8.00024 10.9 10.0002 10.9C11.9902 10.9 15.9702 11.99 16.0002 13.98C14.7102 15.92 12.5002 17.2 10.0002 17.2Z" fill="black"/>
</svg>
